<?xml version="1.0" encoding="UTF-8" standalone="no"?>
<!-- Created with Inkscape (http://www.inkscape.org/) -->

<svg
   xmlns:dc="http://purl.org/dc/elements/1.1/"
   xmlns:cc="http://creativecommons.org/ns#"
   xmlns:rdf="http://www.w3.org/1999/02/22-rdf-syntax-ns#"
   xmlns:svg="http://www.w3.org/2000/svg"
   xmlns="http://www.w3.org/2000/svg"
   xmlns:sodipodi="http://sodipodi.sourceforge.net/DTD/sodipodi-0.dtd"
   xmlns:inkscape="http://www.inkscape.org/namespaces/inkscape"
   width="192mm"
   height="192mm"
   viewBox="0 0 192 192"
   version="1.1"
   id="svg8"
   inkscape:version="0.92.1 r15371"
   sodipodi:docname="logo.svg"
   inkscape:export-filename="C:\Users\pauli\Documents\GitHub\riichi-mahjong-personal-score-tracker\riichi-mahjong-personal-score-tracker\public\logo512.png"
   inkscape:export-xdpi="67.73333"
   inkscape:export-ydpi="67.73333">
  <title
     id="title4511">Riichi Mahjong Personal Score Tracker</title>
  <defs
     id="defs2" />
  <sodipodi:namedview
     id="base"
     pagecolor="#ffffff"
     bordercolor="#666666"
     borderopacity="1.0"
     inkscape:pageopacity="0.0"
     inkscape:pageshadow="2"
     inkscape:zoom="1.979899"
     inkscape:cx="624.37346"
     inkscape:cy="360.93685"
     inkscape:document-units="mm"
     inkscape:current-layer="layer1"
     showgrid="false"
     fit-margin-top="0"
     fit-margin-left="0"
     fit-margin-right="0"
     fit-margin-bottom="0"
     inkscape:window-width="3840"
     inkscape:window-height="2081"
     inkscape:window-x="-9"
     inkscape:window-y="-9"
     inkscape:window-maximized="1" />
  <metadata
     id="metadata5">
    <rdf:RDF>
      <cc:Work
         rdf:about="">
        <dc:format>image/svg+xml</dc:format>
        <dc:type
           rdf:resource="http://purl.org/dc/dcmitype/StillImage" />
        <dc:title>Riichi Mahjong Personal Score Tracker</dc:title>
      </cc:Work>
    </rdf:RDF>
  </metadata>
  <g
     inkscape:label="Layer 1"
     inkscape:groupmode="layer"
     id="layer1"
     transform="translate(-9.8221483,-9.8520489)">
    <rect
       style="opacity:1;fill:#f5f0eb;fill-opacity:1;stroke:none;stroke-width:18.31414986;stroke-linecap:round;stroke-linejoin:round;stroke-miterlimit:4;stroke-dasharray:none;stroke-opacity:1"
       id="rect4509"
       width="192"
       height="192"
       x="9.8221483"
       y="9.8520489" />
    <path
       style="fill:#b93c3c;fill-opacity:1;stroke-width:1.09867215"
       d="m 98.25756,190.43586 c -2.75047,-6.89218 -3.14545,-13.69529 -2.60281,-44.83008 l 0.56976,-32.68988 -13.34597,0.61489 -13.34597,0.61489 v -3.6439 c 0,-8.44048 -6.45874,-22.516966 -13.05622,-28.455418 -1.68062,-1.512742 -2.32521,-3.398363 -2.32521,-6.801862 0,-5.534318 1.17141,-6.694599 3.81246,-3.776274 3.32616,3.675398 7.30908,3.669792 21.64164,-0.03031 7.45184,-1.923836 14.05268,-3.897684 14.66857,-4.386325 0.66971,-0.531336 1.01976,-5.866482 0.87094,-13.273266 L 94.89601,41.393503 91.00374,37.827705 c -2.14076,-1.961187 -3.89226,-4.183808 -3.89226,-4.939168 0,-2.09298 10.95564,-11.92272 13.28833,-11.92272 2.58429,0 17.47593,13.926841 17.47036,16.338495 -0.004,1.928379 -3.59283,8.290167 -6.07775,10.7751 -2.65637,2.656392 -5.23455,15.734621 -3.10184,15.734621 0.38742,0 7.54315,-1.762288 15.90172,-3.916195 9.24874,-2.383306 15.82869,-3.562883 16.81029,-3.013558 1.93023,1.080213 13.82658,14.668339 13.82658,15.792859 0,0.432704 -1.26031,1.103044 -2.80063,1.489646 -2.28747,0.574116 -4.1131,3.37427 -9.96325,15.281484 -3.9394,8.018218 -7.44902,16.714151 -7.79911,19.324311 l -0.63653,4.74573 -14.12037,-0.78094 -14.12036,-0.78093 v 34.575 34.57498 l -2.82725,6.17547 c -1.55497,3.39651 -2.97818,6.17547 -3.16272,6.17547 -0.18437,0 -0.87808,-1.35961 -1.54123,-3.02135 z M 95.9007,91.463801 c 0,-7.150523 -0.27074,-13.271863 -0.60202,-13.602968 -0.72062,-0.720605 -21.54638,4.422377 -22.78377,5.626508 -0.47463,0.461886 0.38493,3.022348 1.91025,5.689911 1.52529,2.667566 3.56016,7.198529 4.52195,10.068811 l 1.74877,5.218697 h 7.60241 7.60241 z m 33.76732,-3.408034 c 3.22506,-8.118536 5.6143,-15.410974 5.30943,-16.205415 -0.74213,-1.934026 -6.74302,-1.838041 -18.35779,0.293621 -11.19263,2.054198 -10.83091,1.390688 -10.83091,19.867807 v 11.44316 l 9.00777,-0.31912 9.00777,-0.31912 z"
       id="path4507"
       inkscape:connector-curvature="0" />
  </g>
</svg>
